<svg xmlns="http://www.w3.org/2000/svg" viewBox="0 0 48 48" id="coder"><path fill="#42a5f5" d="m24 36-3 3-5.19-4.14L21 34l3 2zM32.19 34.86 27 39l-3-3 3-2 5.19.86z"></path><path fill="#424242" d="M35.82 34.46 28 33.15v-2.41A7 7 0 0 0 30.92 26h.58a3.5 3.5 0 0 0 0-7H30a1 1 0 0 0-1 1v5a5 5 0 0 1-1.95 3.93 1 1 0 0 0-1 .6 4.81 4.81 0 0 1-4.16 0 1 1 0 0 0-1-.6A5 5 0 0 1 19 25v-5a1 1 0 0 0-1-1h-1.5a3.5 3.5 0 0 0 0 7h.58A7 7 0 0 0 20 30.74v2.41l-7.82 1.31A5 5 0 0 0 8 39.39V47a1 1 0 0 0 1 1h30a1 1 0 0 0 1-1v-7.61a5 5 0 0 0-4.18-4.93ZM31 21h.5a1.5 1.5 0 0 1 0 3H31Zm-14 3h-.5a1.5 1.5 0 0 1 0-3h.5Zm5 7.71a7.07 7.07 0 0 0 4 0v1.75l-2 1.34-2-1.34ZM38 46h-4v-4a1 1 0 0 0-2 0v4H16v-4a1 1 0 0 0-2 0v4h-4v-6.61a3 3 0 0 1 2.51-3l8.26-1.38c2.82 1.87 2.85 2 3.24 2s.53-.16 3.22-2l8.26 1.38a3 3 0 0 1 2.51 3Z"></path><path fill="#42a5f5" d="M47 0H1a1 1 0 0 0-1 1v28a1 1 0 0 0 1 1h15.54a9.19 9.19 0 0 1-1-2H2V2h44v26H32.48a9.19 9.19 0 0 1-1 2H47a1 1 0 0 0 1-1V1a1 1 0 0 0-1-1Z"></path><path fill="#42a5f5" d="m9.05 10.68 2-6a1 1 0 0 1 1.9.64l-2 6a1 1 0 0 1-1.9-.64zM15 11a1 1 0 0 1-.71-1.71L15.59 8l-1.3-1.29a1 1 0 0 1 1.42-1.42l2 2a1 1 0 0 1 0 1.42C15.53 10.89 15.54 11 15 11zm-8 0c-.54 0-.57-.15-2.71-2.29a1 1 0 0 1 0-1.42l2-2a1 1 0 0 1 1.42 1.42L6.41 8l1.3 1.29A1 1 0 0 1 7 11zm31-2.41-3.18 3.17A5 5 0 0 1 38 4.1zM39.41 10h4.49a5 5 0 0 1-7.66 3.18zm4.49-2H40V4.1A5 5 0 0 1 43.9 8z"></path><path fill="#424242" d="M12 18H5a1 1 0 0 1 0-2h7a1 1 0 0 1 0 2zm-3 4H5a1 1 0 0 1 0-2h4a1 1 0 0 1 0 2zm0 4H5a1 1 0 0 1 0-2h4a1 1 0 0 1 0 2zm34-8h-7a1 1 0 0 1 0-2h7a1 1 0 0 1 0 2zm0 4h-4a1 1 0 0 1 0-2h4a1 1 0 0 1 0 2zm0 4h-4a1 1 0 0 1 0-2h4a1 1 0 0 1 0 2z"></path><path fill="#42a5f5" d="M26 18c-3.48 1.74-6.22 2-10 2v-3a6 6 0 0 1 6-6h3.76A3.62 3.62 0 0 1 29 13a3 3 0 0 1 3 3v4c-2 0-4 0-6-2Z"></path></svg>